{"title":"Fires.on.the.Plain.1959.1080p.BluRay.x264.mkv","uid":15234237,"size":9400557712,"categoryP":"video","categoryS":"hd___movies","magnet":"?xt=urn:btih:7909a928fd320497979cd515f759816bf1b74166&amp;dn=Fires.on.the.Plain.1959.1080p.BluRay.x264.mkv&amp;tr=udp%3A%2F%2Ftracker.leechers-paradise.org%3A6969&amp;tr=udp%3A%2F%2Fzer0day.ch%3A1337&amp;tr=udp%3A%2F%2Fopen.demonii.com%3A1337&amp;tr=udp%3A%2F%2Ftracker.coppersurfer.tk%3A6969&amp;tr=udp%3A%2F%2Fexodus.desync.com%3A6969","seeders":2,"leechers":0,"uploader":"anhero300","files":1,"time":1467862209,"description":"Fires.on.the.Plain.1959.1080p.BluRay.x264.mkv\r\nFormat                                   : Matroska\r\nFormat version                           : Version 2\r\nFile size                                : 8.75 GiB\r\nDuration                                 : 1h 44mn\r\nOverall bit rate                         : 12.0 Mbps\r\nMovie name                               : Fires on the Plain (1959) AVC 1080p BD50 - Custom subs.Title3\r\nEncoded date                             : UTC 2016-07-04 19:27:08\r\nWriting application                      : DVDFab\r\nWriting library                          : libebml v0.7.8 + libmatroska v0.8.1\r\n\r\nVideo\r\nID                                       : 1\r\nFormat                                   : AVC\r\nFormat/Info                              : Advanced Video Codec\r\nFormat profile                           :   \r\nFormat settings, CABAC                   : Yes\r\nFormat settings, ReFrames                : 2 frames\r\nCodec ID                                 : V_MPEG4/ISO/AVC\r\nDuration                                 : 1h 44mn\r\nBit rate                                 : 11.6 Mbps\r\nWidth                                    : 1 920 pixels\r\nHeight                                   : 804 pixels\r\nDisplay aspect ratio                     : 2.40:1\r\nFrame rate                               : 23.976 fps\r\nColor space                              : YUV\r\nChroma subsampling                       : 4:2:0\r\nBit depth                                : 8 bits\r\nScan type                                : Progressive\r\nBits/(Pixel*Frame)                       : 0.313\r\nStream size                              : 8.44 GiB (96%)\r\nWriting library                          : x264 core\r\nDefault                                  : Yes\r\nForced                                   : No\r\nColor primaries                          : BT.709-5, BT.1361, IEC 61966-2-4, SMPTE RP177\r\nTransfer characteristics                 : BT.709-5, BT.1361\r\nMatrix coefficients                      : BT.709-5, BT.1361, IEC 61966-2-4 709, SMPTE RP177\r\n\r\nAudio\r\nID                                       : 2\r\nFormat                                   : AC-3\r\nFormat/Info                              : Audio Coding 3\r\nMode extension                           : CM (complete main)\r\nCodec ID                                 : A_AC3\r\nDuration                                 : 1h 44mn\r\nBit rate mode                            : Constant\r\nBit rate                                 : 192 Kbps\r\nChannel(s)                               : 2 channels\r\nChannel positions                        : Front: L R\r\nSampling rate                            : 48.0 KHz\r\nBit depth                                : 16 bits\r\nCompression mode                         : Lossy\r\nStream size                              : 143 MiB (2%)\r\nLanguage                                 : Japanese\r\nDefault                                  : Yes\r\nForced                                   : No\r\n\r\nText\r\nID                                       : 4\r\nFormat                                   : PGS\r\nCodec ID                                 : S_HDMV/PGS\r\nCodec ID/Info                            : The same subtitle format used on BDs/HD-DVDs\r\nLanguage                                 : English\r\nDefault                                  : No\r\nForced                                   : No\r\n\r\nMenu\r\n00:00:00.000                             : en:(01)00:00:00:000\r\n00:08:35.097                             : en:(02)00:08:35:097\r\n00:17:15.325                             : en:(03)00:17:15:325\r\n00:27:06.291                             : en:(04)00:27:06:291\r\n00:35:08.481                             : en:(05)00:35:08:481\r\n00:42:46.855                             : en:(06)00:42:46:855\r\n00:50:46.626                             : en:(07)00:50:46:626\r\n00:58:47.440                             : en:(08)00:58:47:440\r\n01:06:09.173                             : en:(09)01:06:09:173\r\n01:13:09.426                             : en:(10)01:13:09:426\r\n01:20:09.429                             : en:(11)01:20:09:429\r\n01:28:39.439                             : en:(12)01:28:39:439\r\n01:35:17.002                             : en:(13)01:35:17:002","torrent":{"xt":"urn:btih:7909a928fd320497979cd515f759816bf1b74166","amp;dn":"Fires.on.the.Plain.1959.1080p.BluRay.x264.mkv","amp;tr":["udp%3A%2F%2Ftracker.leechers-paradise.org%3A6969","udp%3A%2F%2Fzer0day.ch%3A1337","udp%3A%2F%2Fopen.demonii.com%3A1337","udp%3A%2F%2Ftracker.coppersurfer.tk%3A6969","udp%3A%2F%2Fexodus.desync.com%3A6969"],"infoHash":"7909a928fd320497979cd515f759816bf1b74166","infoHashBuffer":{"type":"Buffer","data":[121,9,169,40,253,50,4,151,151,156,213,21,247,89,129,107,241,183,65,102]},"announce":[],"urlList":[]}}